<?xml version="1.0" encoding="UTF-8" standalone="no"?>
<!-- Created with Inkscape (http://www.inkscape.org/) -->

<svg
   xmlns:dc="http://purl.org/dc/elements/1.1/"
   xmlns:cc="http://creativecommons.org/ns#"
   xmlns:rdf="http://www.w3.org/1999/02/22-rdf-syntax-ns#"
   xmlns:svg="http://www.w3.org/2000/svg"
   xmlns="http://www.w3.org/2000/svg"
   xmlns:sodipodi="http://sodipodi.sourceforge.net/DTD/sodipodi-0.dtd"
   xmlns:inkscape="http://www.inkscape.org/namespaces/inkscape"
   width="64px"
   height="64px"
   id="svg3807"
   version="1.1"
   inkscape:version="0.48.4 r9939"
   sodipodi:docname="Neues Dokument 5">
  <defs
     id="defs3809" />
  <sodipodi:namedview
     id="base"
     pagecolor="#ffffff"
     bordercolor="#666666"
     borderopacity="1.0"
     inkscape:pageopacity="0.0"
     inkscape:pageshadow="2"
     inkscape:zoom="5.5"
     inkscape:cx="32"
     inkscape:cy="32"
     inkscape:current-layer="layer1"
     showgrid="true"
     inkscape:document-units="px"
     inkscape:grid-bbox="true"
     inkscape:window-width="1920"
     inkscape:window-height="1134"
     inkscape:window-x="-2"
     inkscape:window-y="-3"
     inkscape:window-maximized="1" />
  <metadata
     id="metadata3812">
    <rdf:RDF>
      <cc:Work
         rdf:about="">
        <dc:format>image/svg+xml</dc:format>
        <dc:type
           rdf:resource="http://purl.org/dc/dcmitype/StillImage" />
        <dc:title></dc:title>
      </cc:Work>
    </rdf:RDF>
  </metadata>
  <g
     id="layer1"
     inkscape:label="Layer 1"
     inkscape:groupmode="layer">
    <path
       sodipodi:type="spiral"
       style="fill:#00ff00;stroke:#0ee2ff;stroke-width:1px;stroke-linecap:butt;stroke-linejoin:miter;stroke-opacity:1"
       id="path3805"
       sodipodi:cx="21.285715"
       sodipodi:cy="26.142857"
       sodipodi:expansion="1"
       sodipodi:revolution="3.7713943"
       sodipodi:radius="27.043232"
       sodipodi:argument="-19.992352"
       sodipodi:t0="0"
       d="m 21.285715,26.142857 c 0.447664,-0.981281 1.543608,0.119312 1.630953,0.744046 0.236699,1.69299 -1.671925,2.692104 -3.119045,2.517859 -2.588558,-0.311685 -3.930656,-3.130075 -3.404766,-5.494044 0.771765,-3.46922 4.604349,-5.195798 7.869043,-4.291672 4.351323,1.205058 6.471664,6.083869 5.178578,10.244042 -1.627216,5.235153 -7.565771,7.752953 -12.61904,6.065484 C 10.701252,33.884821 7.784077,26.87958 9.8690467,20.934533 12.326111,13.928501 20.402078,10.610811 27.238085,13.095236 c 7.89244,2.868366 11.611386,12.017617 8.726204,19.744036 -3.278328,8.77925 -13.502588,12.899965 -22.119036,9.613111 C 4.1789006,38.76503 -0.343952,27.464543 3.3452362,17.958348 7.4409343,7.4046705 19.818541,2.4794049 30.214269,6.5714251 41.655444,11.074959 46.983334,24.530359 42.488099,35.815457 37.577121,48.144263 23.043405,53.874942 10.869068,48.976193 -2.3474766,43.658078 -8.4810775,28.045635 -3.1785743,14.982164 c 0.4548617,-1.120617 0.9854803,-2.210418 1.586672,-3.259814"
       transform="matrix(1.2789612,0,0,1.3736172,7.3343701,-6.182401)" />
    <text
       xml:space="preserve"
       style="font-size:40px;font-style:normal;font-weight:normal;line-height:125%;letter-spacing:0px;word-spacing:0px;fill:#000000;fill-opacity:1;stroke:none;display:inline;font-family:Sans"
       x="17.735439"
       y="14.873935"
       id="text3001"
       sodipodi:linespacing="125%"><tspan
         sodipodi:role="line"
         id="tspan3003"
         x="17.735439"
         y="14.873935"
         style="font-size:16px">odt</tspan></text>
    <text
       xml:space="preserve"
       style="font-size:40px;font-style:normal;font-weight:normal;line-height:125%;letter-spacing:0px;word-spacing:0px;fill:#000000;fill-opacity:1;stroke:none;display:inline;font-family:Sans"
       x="25.59659"
       y="38.542614"
       id="text3005"
       sodipodi:linespacing="125%"><tspan
         sodipodi:role="line"
         id="tspan3007"
         x="25.59659"
         y="38.542614"
         style="font-size:24px">2</tspan></text>
    <text
       xml:space="preserve"
       style="font-size:40px;font-style:normal;font-weight:normal;line-height:125%;letter-spacing:0px;word-spacing:0px;fill:#000000;fill-opacity:1;stroke:none;display:inline;font-family:Sans"
       x="20.167078"
       y="53.829437"
       id="text3009"
       sodipodi:linespacing="125%"><tspan
         sodipodi:role="line"
         id="tspan3011"
         x="20.167078"
         y="53.829437"
         style="font-size:13px">PDF</tspan></text>
  </g>
</svg>
